<?xml version="1.0" encoding="utf-8"?>
<!-- Generator: Adobe Illustrator 19.1.0, SVG Export Plug-In . SVG Version: 6.00 Build 0)  -->
<svg version="1.1" id="Livello_1" xmlns="http://www.w3.org/2000/svg" xmlns:xlink="http://www.w3.org/1999/xlink" x="0px" y="0px"
	 viewBox="0 0 47 30.6" style="enable-background:new 0 0 47 30.6;" xml:space="preserve">
<style type="text/css">
	.st0{fill:#B2B2B2;}
	.st1{fill:#FFFFFF;}
	.st2{fill:none;stroke:#84C7AF;stroke-width:1.000000e-02;stroke-miterlimit:10;}
</style>
<g>
	<path class="st0" d="M46.7,9.9c2,7.8-6,16.3-18.8,19.6c-12.8,3.3-25.7-0.8-27.6-8.6C-1.7,13,6.8,4.4,19.6,1.1
		C32.4-2.2,44.7,2.1,46.7,9.9z"/>
	<polygon points="22.9,5.1 21.4,6.6 19.4,12.5 18.5,5.1 14.1,5.1 12.7,6.6 10.6,12.5 9.9,5.1 4.2,5.1 2.8,6.6 1.3,10.7 4.4,10.7 
		6.1,25.5 10.7,25.5 12.2,24 14,18.3 14.9,25.5 19.3,25.5 20.7,24 27.3,5.1 	"/>
	<polygon class="st1" points="21.8,7 25.2,7 18.9,25.1 18.9,25.1 15.3,25.1 14,14.1 10.4,25.1 6.5,25.1 4.8,10.7 4.8,10.3 4.4,10.3 
		1.9,10.3 3.1,7 8,7 9.1,18 13,7 16.7,7 17.9,18 	"/>
	<polygon points="41.4,5.1 39.9,6.6 39.2,12.5 34.6,12.5 35.5,5.1 29.1,5.1 27.7,6.6 26.4,10.7 29.1,10.7 27.4,25.5 31.8,25.5 
		33.3,24 34,18.1 38.5,18.1 37.7,25.5 42.1,25.5 43.5,24 45.7,5.1 	"/>
	<polygon class="st1" points="32.7,14.4 39.4,14.4 40.3,7 43.8,7 41.7,25.1 41.7,25.1 38.2,25.1 39,17.7 32.3,17.7 31.4,25.1 
		27.9,25.1 29.6,10.3 27,10.3 28,7 33.5,7 	"/>
	<path class="st2" d="M43.5,21.8"/>
	<path class="st2" d="M7.3,21.8"/>
</g>
</svg>
